<svg width="327" height="243" viewBox="0 0 327 243" fill="none" xmlns="http://www.w3.org/2000/svg">
<path d="M326.122 213.544H0V213.707H326.122V213.544Z" fill="#EBEBEB"/>
<path d="M293.445 219.754H234.156V219.917H293.445V219.754Z" fill="#EBEBEB"/>
<path d="M216.036 217.987H199.802V218.15H216.036V217.987Z" fill="#EBEBEB"/>
<path d="M253.142 225.813H227.972V225.977H253.142V225.813Z" fill="#EBEBEB"/>
<path d="M48.9834 224.718H34.2166V224.881H48.9834V224.718Z" fill="#EBEBEB"/>
<path d="M72.3274 224.718H54.7885V224.881H72.3274V224.718Z" fill="#EBEBEB"/>
<path d="M146.852 221.965H116.301V222.128H146.852V221.965Z" fill="#EBEBEB"/>
<path d="M154.582 184.455H28.6399C27.6533 184.453 26.7076 184.06 26.0106 183.361C25.3136 182.663 24.9221 181.717 24.9221 180.73V3.6917C24.9307 2.71074 25.326 1.77279 26.0221 1.08156C26.7182 0.390341 27.6589 0.00168043 28.6399 0H154.582C155.569 0 156.517 0.392382 157.215 1.09083C157.914 1.78927 158.306 2.73656 158.306 3.72431V180.73C158.306 181.718 157.914 182.665 157.215 183.364C156.517 184.062 155.569 184.455 154.582 184.455ZM28.6399 0.130449C27.6965 0.132177 26.7924 0.508141 26.1259 1.17582C25.4595 1.84349 25.0851 2.74833 25.0851 3.6917V180.73C25.0851 181.674 25.4595 182.578 26.1259 183.246C26.7924 183.914 27.6965 184.29 28.6399 184.292H154.582C155.526 184.29 156.43 183.914 157.098 183.247C157.765 182.579 158.141 181.674 158.143 180.73V3.6917C158.141 2.74773 157.765 1.84291 157.098 1.17542C156.43 0.507929 155.526 0.132173 154.582 0.130449H28.6399Z" fill="#EBEBEB"/>
<path d="M295.669 184.455H169.721C168.733 184.453 167.787 184.06 167.089 183.362C166.391 182.664 165.998 181.717 165.996 180.73V3.6917C166.007 2.71015 166.403 1.7722 167.1 1.08115C167.798 0.390113 168.739 0.00166211 169.721 0H295.669C296.649 0.0033946 297.588 0.392813 298.283 1.08385C298.977 1.77489 299.372 2.71187 299.38 3.6917V180.73C299.38 181.716 298.99 182.661 298.294 183.359C297.598 184.057 296.654 184.451 295.669 184.455ZM169.721 0.130449C168.777 0.132173 167.872 0.507929 167.204 1.17542C166.537 1.84291 166.161 2.74773 166.159 3.6917V180.73C166.161 181.674 166.537 182.579 167.204 183.247C167.872 183.914 168.777 184.29 169.721 184.292H295.669C296.613 184.29 297.518 183.914 298.185 183.247C298.853 182.579 299.228 181.674 299.23 180.73V3.6917C299.228 2.74773 298.853 1.84291 298.185 1.17542C297.518 0.507929 296.613 0.132173 295.669 0.130449H169.721Z" fill="#EBEBEB"/>
<path d="M34.2101 213.538H112.192L112.192 41.0785H34.2101L34.2101 213.538Z" fill="#F0F0F0"/>
<path d="M34.2168 213.538H108.501L108.501 41.0785H34.2168L34.2168 213.538Z" fill="#F5F5F5"/>
<path d="M104.587 209.631L104.587 44.9983L38.1302 44.9983L38.1302 209.631H104.587Z" fill="#F0F0F0"/>
<path d="M59.602 122.622H46.0549C45.5936 122.62 45.1516 122.436 44.8254 122.11C44.4992 121.784 44.3152 121.342 44.3134 120.88C44.3152 120.419 44.4992 119.977 44.8254 119.651C45.1516 119.325 45.5936 119.141 46.0549 119.139H59.602C60.0634 119.141 60.5053 119.325 60.8316 119.651C61.1578 119.977 61.3418 120.419 61.3435 120.88C61.3418 121.342 61.1578 121.784 60.8316 122.11C60.5053 122.436 60.0634 122.62 59.602 122.622Z" fill="white"/>
<path d="M39.1478 209.631L39.1478 44.9983H38.1303L38.1303 209.631H39.1478Z" fill="#F0F0F0"/>
<path d="M148.731 210.27H160.341V159.917H148.731V210.27Z" fill="#F0F0F0"/>
<path d="M100.857 213.467H158.111V210.277H100.857V213.467Z" fill="#F0F0F0"/>
<path d="M148.731 159.924H98.6257V210.277H148.731V159.924Z" fill="#F5F5F5"/>
<path d="M144.159 166.12H103.185V182.635H144.159V166.12Z" fill="#F0F0F0"/>
<path d="M144.159 187.559H103.185V204.074H144.159V187.559Z" fill="#F0F0F0"/>
<path d="M119.074 167.509H128.277C128.575 167.507 128.861 167.388 129.073 167.177C129.284 166.966 129.403 166.679 129.405 166.381C129.405 166.081 129.286 165.793 129.075 165.581C128.864 165.368 128.577 165.248 128.277 165.246H119.074C118.774 165.248 118.487 165.368 118.275 165.581C118.064 165.793 117.945 166.081 117.945 166.381C117.947 166.679 118.066 166.966 118.278 167.177C118.489 167.388 118.775 167.507 119.074 167.509Z" fill="#F5F5F5"/>
<path d="M119.074 188.955H128.277C128.572 188.953 128.855 188.837 129.066 188.63C129.277 188.423 129.398 188.141 129.405 187.846C129.403 187.547 129.284 187.261 129.073 187.05C128.861 186.839 128.575 186.719 128.277 186.718H119.074C118.775 186.719 118.489 186.839 118.278 187.05C118.066 187.261 117.947 187.547 117.945 187.846C117.952 188.141 118.074 188.423 118.284 188.63C118.495 188.837 118.778 188.953 119.074 188.955Z" fill="#F5F5F5"/>
<path d="M127.494 158.932C127.267 158.931 127.049 158.839 126.887 158.678C126.726 158.517 126.635 158.299 126.633 158.071V131.91C126.633 131.681 126.724 131.462 126.886 131.301C127.047 131.14 127.266 131.049 127.494 131.049C127.722 131.051 127.94 131.142 128.101 131.303C128.262 131.464 128.354 131.682 128.355 131.91V158.071C128.354 158.299 128.262 158.517 128.101 158.678C127.94 158.839 127.722 158.931 127.494 158.932Z" fill="#F5F5F5"/>
<path d="M135.549 157.915H119.439V159.943H135.549V157.915Z" fill="#F0F0F0"/>
<path d="M131.955 143.278C131.842 143.278 131.734 143.234 131.653 143.155C131.573 143.075 131.527 142.967 131.525 142.854V129.796C131.527 129.683 131.573 129.574 131.653 129.494C131.733 129.414 131.842 129.368 131.955 129.366C132.069 129.368 132.178 129.414 132.258 129.494C132.338 129.574 132.384 129.683 132.386 129.796V142.841C132.387 142.898 132.376 142.955 132.355 143.008C132.334 143.061 132.302 143.109 132.262 143.15C132.222 143.191 132.174 143.223 132.122 143.245C132.069 143.267 132.013 143.278 131.955 143.278Z" fill="#F0F0F0"/>
<path d="M114.965 134.297C114.965 134.297 115.284 121.97 127.494 121.97C139.704 121.97 140.017 134.284 140.017 134.284L114.965 134.297Z" fill="#F0F0F0"/>
<path d="M220.661 151.712C221.007 151.712 221.359 151.712 221.711 151.745C225.319 152.005 228.711 153.561 231.262 156.124C233.814 158.688 235.354 162.087 235.597 165.696C235.7 167.336 235.537 168.981 235.115 170.569C233.48 176.936 232.69 183.491 232.767 190.064V209.201C232.767 209.532 232.703 209.861 232.576 210.167C232.449 210.473 232.263 210.751 232.029 210.985C231.794 211.219 231.515 211.405 231.209 211.531C230.902 211.656 230.574 211.72 230.242 211.719H169.499V151.712H220.661Z" fill="#F0F0F0"/>
<path d="M154.53 166.681C154.536 164.553 154.996 162.451 155.879 160.516C156.763 158.58 158.049 156.855 159.651 155.455C161.254 154.056 163.137 153.014 165.174 152.4C167.211 151.786 169.356 151.614 171.465 151.894C173.574 152.175 175.6 152.902 177.405 154.027C179.211 155.153 180.756 156.65 181.937 158.42C183.119 160.19 183.909 162.191 184.255 164.291C184.601 166.39 184.496 168.539 183.946 170.594C182.316 176.963 181.529 183.517 181.604 190.09V209.227C181.604 209.557 181.539 209.884 181.413 210.189C181.286 210.494 181.1 210.772 180.867 211.005C180.633 211.238 180.355 211.423 180.05 211.549C179.744 211.675 179.417 211.739 179.087 211.738H159.904C159.574 211.738 159.248 211.673 158.943 211.547C158.639 211.421 158.362 211.236 158.129 211.002C157.895 210.769 157.71 210.492 157.584 210.188C157.458 209.883 157.393 209.557 157.393 209.227V188.942C157.448 182.777 156.667 176.634 155.071 170.679C154.711 169.377 154.529 168.032 154.53 166.681Z" fill="#F5F5F5"/>
<path d="M190.123 211.719H244.657V175.284H190.123V211.719Z" fill="#F0F0F0"/>
<path d="M289.727 183.529H216.734V127.651C216.734 124.648 217.927 121.768 220.051 119.644C222.174 117.521 225.054 116.328 228.057 116.328L278.404 116.328C281.407 116.328 284.287 117.521 286.411 119.644C288.534 121.768 289.727 124.648 289.727 127.651V183.529Z" fill="#E0E0E0"/>
<path d="M275.462 183.529H202.469V127.103C202.469 124.243 203.605 121.501 205.627 119.479C207.649 117.457 210.392 116.321 213.251 116.321L264.654 116.321C267.514 116.321 270.256 117.457 272.278 119.479C274.3 121.501 275.436 124.243 275.436 127.103V183.529H275.462Z" fill="#F5F5F5"/>
<path d="M241.096 186.796H190.827C189.962 186.796 189.133 186.453 188.521 185.841C187.91 185.229 187.566 184.4 187.566 183.535V175.271C187.566 174.406 187.91 173.577 188.521 172.965C189.133 172.353 189.962 172.01 190.827 172.01H241.096C241.357 172.01 241.607 172.114 241.792 172.298C241.977 172.483 242.08 172.733 242.08 172.995V185.818C242.079 186.078 241.974 186.327 241.79 186.51C241.605 186.693 241.356 186.796 241.096 186.796Z" fill="#E0E0E0"/>
<path d="M295.108 151.712C295.453 151.712 295.799 151.712 296.158 151.745C299.764 152.007 303.155 153.563 305.705 156.127C308.255 158.69 309.794 162.088 310.038 165.696C310.147 167.336 309.984 168.982 309.555 170.569C307.919 176.938 307.13 183.495 307.207 190.071V209.207C307.207 209.538 307.142 209.865 307.015 210.17C306.889 210.475 306.703 210.752 306.469 210.985C306.235 211.219 305.958 211.404 305.652 211.529C305.347 211.655 305.02 211.719 304.689 211.719H243.939V151.712H295.108Z" fill="#F0F0F0"/>
<path d="M228.977 166.681C228.95 162.78 230.449 159.023 233.152 156.211C235.856 153.398 239.551 151.753 243.45 151.625C247.349 151.498 251.143 152.898 254.025 155.528C256.906 158.157 258.647 161.808 258.876 165.702C258.979 167.342 258.816 168.987 258.393 170.575C256.758 176.942 255.968 183.497 256.045 190.07V209.207C256.045 209.873 255.78 210.512 255.309 210.983C254.839 211.454 254.2 211.718 253.534 211.718H234.345C234.015 211.718 233.688 211.653 233.384 211.527C233.079 211.401 232.802 211.216 232.569 210.983C232.336 210.75 232.151 210.473 232.025 210.168C231.899 209.863 231.834 209.537 231.834 209.207V188.942C231.888 182.778 231.109 176.635 229.518 170.679C229.159 169.377 228.976 168.032 228.977 166.681Z" fill="#F5F5F5"/>
<path d="M170.562 213.545H294.038C294.278 213.545 294.515 213.498 294.736 213.406C294.957 213.314 295.158 213.179 295.327 213.009C295.496 212.84 295.63 212.638 295.721 212.417C295.812 212.195 295.859 211.958 295.858 211.719H168.742C168.741 211.958 168.788 212.195 168.879 212.417C168.97 212.638 169.104 212.84 169.273 213.009C169.442 213.179 169.643 213.314 169.864 213.406C170.085 213.498 170.322 213.545 170.562 213.545Z" fill="#E0E0E0"/>
<path d="M243.691 73.6189H283.407V30.3034L243.691 30.3034V73.6189Z" fill="#E0E0E0"/>
<path d="M241.324 73.6189H282.069V30.3034L241.324 30.3034V73.6189Z" fill="#F5F5F5"/>
<path d="M278.651 70.2075V33.7145H244.728V70.2075H278.651Z" fill="white"/>
<path d="M261.693 42.735L270.968 58.8063H252.418L261.693 42.735Z" fill="#F5F5F5"/>
<path d="M187.977 98.9062H227.692V55.5907L187.977 55.5907V98.9062Z" fill="#E0E0E0"/>
<path d="M185.609 98.9062H226.355V55.5907L185.609 55.5907V98.9062Z" fill="#F5F5F5"/>
<path d="M222.937 95.495V59.002H189.014V95.495H222.937Z" fill="white"/>
<path d="M201.831 83.7546L197.806 76.7821C197.388 76.0543 197.168 75.2292 197.169 74.3896C197.17 73.55 197.391 72.7254 197.812 71.9986C198.232 71.2717 198.836 70.6682 199.563 70.2485C200.29 69.8288 201.115 69.6077 201.955 69.6074H210.023C210.862 69.6085 211.687 69.83 212.414 70.2497C213.14 70.6694 213.744 71.2726 214.165 71.999C214.586 72.7254 214.808 73.5495 214.81 74.3889C214.813 75.2283 214.594 76.0535 214.178 76.7821L210.153 83.7546C209.734 84.4879 209.128 85.0973 208.397 85.5212C207.666 85.9451 206.837 86.1683 205.992 86.1683C205.147 86.1683 204.317 85.9451 203.587 85.5212C202.856 85.0973 202.25 84.4879 201.831 83.7546Z" fill="#F5F5F5"/>
<path d="M163.4 243C233.243 243 289.863 239.694 289.863 235.617C289.863 231.539 233.243 228.233 163.4 228.233C93.5557 228.233 36.936 231.539 36.936 235.617C36.936 239.694 93.5557 243 163.4 243Z" fill="#F5F5F5"/>
<path d="M232.975 28.8944H82.6201L92.5146 233.66H242.87L232.975 28.8944Z" fill="#EA3F7E"/>
<path opacity="0.2" d="M232.975 28.8944H82.6201L92.5146 233.66H242.87L232.975 28.8944Z" fill="black"/>
<path d="M234.365 28.8944H84.0096L93.9106 233.66H244.266L234.365 28.8944Z" fill="#EA3F7E"/>
<path opacity="0.2" d="M226.427 35.7822H90.8838L100.354 224.405L218.215 224.248L237.802 206.885L226.427 35.7822Z" fill="black"/>
<path d="M227.464 35.7758C228.909 92.2642 233.471 148.63 241.128 204.616C230.388 212.008 219.702 219.4 209.07 226.792H107.699C98.1305 163.531 92.5146 99.7353 90.8838 35.7758H227.464Z" fill="white"/>
<path d="M241.129 204.615C230.388 212.007 219.702 219.4 209.071 226.792C211.393 217.008 213.813 207.224 216.33 197.441L241.129 204.615Z" fill="#EBEBEB"/>
<path d="M127.638 53.0339C127.895 59.939 128.195 66.8484 128.538 73.7622H107.817C107.469 66.8484 107.169 59.939 106.916 53.0339H127.638ZM129.752 50.8489H104.653C104.945 59.2106 105.308 67.5768 105.742 75.9472H130.847C130.412 67.5811 130.049 59.215 129.758 50.8489H129.752Z" fill="#EA3F7E"/>
<path d="M212.312 60.8152H141.335C141.27 59.2563 141.211 57.6909 141.152 56.1321H212.123C212.182 57.6909 212.247 59.2563 212.312 60.8152Z" fill="#E0E0E0"/>
<path d="M197.317 70.6642H141.772C141.7 69.0988 141.622 67.5399 141.557 65.9811H197.095C197.169 67.5421 197.243 69.1031 197.317 70.6642Z" fill="#E0E0E0"/>
<path d="M129.673 93.6296C130.108 100.543 130.593 107.457 131.128 114.371H110.399C109.864 107.457 109.38 100.543 108.945 93.6296H129.673ZM131.721 91.4446H106.623C107.136 99.815 107.721 108.186 108.377 116.556H133.508C132.856 108.19 132.269 99.8194 131.747 91.4446H131.721Z" fill="#EA3F7E"/>
<path d="M169.642 101.417H143.553C143.448 99.852 143.337 98.2932 143.24 96.7278H169.329C169.427 98.2932 169.532 99.852 169.642 101.417Z" fill="#E0E0E0"/>
<path d="M194.343 101.417H175.16C175.056 99.852 174.945 98.2932 174.847 96.7278H194.03C194.128 98.2932 194.232 99.852 194.343 101.417Z" fill="#E0E0E0"/>
<path d="M206.384 111.273H144.27C144.153 109.708 144.042 108.149 143.925 106.583H206.038C206.155 108.149 206.266 109.708 206.384 111.273Z" fill="#E0E0E0"/>
<path d="M132.784 134.245C133.406 141.159 134.076 148.072 134.793 154.986H114.065C113.347 148.072 112.678 141.159 112.056 134.245H132.784ZM134.78 132.06H109.675C110.414 140.435 111.223 148.807 112.102 157.178H137.206C136.337 148.803 135.528 140.43 134.78 132.06Z" fill="#EA3F7E"/>
<path d="M218.365 147.205H147.381L147.851 151.888H218.835L218.365 147.205Z" fill="#E0E0E0"/>
<path d="M201.994 137.35H146.449C146.592 138.908 146.736 140.474 146.886 142.033H202.424C202.281 140.474 202.131 138.928 201.994 137.35Z" fill="#E0E0E0"/>
<path d="M136.978 174.86C137.787 181.774 138.641 188.685 139.541 195.595H118.813C117.913 188.69 117.058 181.778 116.25 174.86H136.978ZM138.935 172.675H113.81C114.767 181.05 115.8 189.418 116.908 197.78H141.987C140.887 189.418 139.854 181.05 138.889 172.675H138.935Z" fill="#EA3F7E"/>
<path d="M222.272 182.628H151.288C151.099 181.063 150.91 179.504 150.727 177.938H221.704C221.894 179.523 222.076 181.082 222.272 182.628Z" fill="#E0E0E0"/>
<path d="M184.833 192.497H152.521C152.319 190.938 152.123 189.373 151.928 187.814H184.24C184.436 189.373 184.631 190.938 184.833 192.497Z" fill="#E0E0E0"/>
<path d="M204.127 192.497H190.175C189.973 190.938 189.777 189.373 189.582 187.814H203.533C203.729 189.373 203.951 190.938 204.127 192.497Z" fill="#E0E0E0"/>
<path d="M118.506 70.8011L117.587 69.34C115.578 66.1441 111.482 63.2937 110.066 62.4589L111.123 60.5869C113.9 62.2732 116.381 64.4039 118.467 66.8941C121.624 62.5958 126.294 58.1541 132.686 53.3796L134.036 55.1407C127.214 60.2478 122.439 64.9244 119.426 69.4248L118.506 70.8011Z" fill="#EA3F7E"/>
<path d="M120.985 111.41L120.026 109.949C117.939 106.753 113.765 103.896 112.33 103.061L113.328 101.189C116.158 102.876 118.697 105.008 120.848 107.503C123.888 103.198 128.434 98.7563 134.702 93.9753C135.165 94.5624 135.635 95.1494 136.098 95.7429C129.412 100.857 124.762 105.527 121.872 110.034C121.572 110.49 121.279 110.953 120.985 111.41Z" fill="#EA3F7E"/>
<path d="M124.586 152.13L123.588 150.669C121.409 147.473 117.157 144.616 115.702 143.787C116.015 143.135 116.354 142.535 116.654 141.915C119.528 143.605 122.121 145.733 124.338 148.223C127.266 143.918 131.695 139.483 137.826 134.695L139.274 136.463C132.752 141.576 128.186 146.246 125.427 150.753L124.586 152.13Z" fill="#EA3F7E"/>
<path d="M190.338 215.541C186.49 215.541 184.272 214.119 182.316 212.866C180.359 211.614 178.676 210.531 175.428 210.531C172.18 210.531 170.732 211.666 169.199 212.866C167.666 214.066 165.788 215.541 161.94 215.541C158.091 215.541 155.874 214.119 153.923 212.866C151.973 211.614 150.29 210.531 147.036 210.531C143.781 210.531 142.34 211.666 140.807 212.866C139.274 214.066 137.396 215.541 133.554 215.541C129.712 215.541 127.488 214.119 125.531 212.866C123.575 211.614 121.898 210.531 118.644 210.531C118.559 209.879 118.467 209.279 118.383 208.653C122.231 208.653 124.442 210.075 126.399 211.327C128.355 212.579 130.032 213.662 133.28 213.662C136.528 213.662 137.976 212.527 139.509 211.327C141.042 210.127 142.927 208.653 146.775 208.653C150.623 208.653 152.828 210.075 154.784 211.327C156.741 212.579 158.424 213.662 161.672 213.662C164.92 213.662 166.368 212.527 167.901 211.327C169.434 210.127 171.319 208.653 175.167 208.653C179.015 208.653 181.226 210.075 183.183 211.327C185.14 212.579 186.816 213.662 190.071 213.662C190.156 214.288 190.253 214.914 190.338 215.541Z" fill="#EBEBEB"/>
<path d="M195.856 33.9623C193.652 28.0921 188.558 24.2374 183.079 24.2374H171.913C171.081 24.2301 170.27 23.979 169.581 23.5152C168.891 23.0515 168.352 22.3954 168.032 21.6284C167.242 19.7537 165.922 18.1505 164.234 17.0161C162.546 15.8816 160.562 15.2653 158.528 15.2429C156.561 15.223 154.638 15.8315 153.04 16.98C151.443 18.1285 150.253 19.757 149.645 21.6284C149.397 22.3941 148.911 23.0604 148.257 23.5298C147.603 23.9993 146.817 24.2472 146.012 24.2374H134.852C129.367 24.2374 124.644 28.1117 123.014 33.9623L122.362 36.2908H196.717L195.856 33.9623Z" fill="#263238"/>
<path d="M196.254 38.5867H123.072C122.455 38.5795 121.864 38.3386 121.417 37.9125C120.97 37.4865 120.702 36.907 120.666 36.2908C120.65 35.9947 120.694 35.6985 120.797 35.4204C120.9 35.1423 121.059 34.8882 121.263 34.6737C121.468 34.4593 121.714 34.289 121.987 34.1733C122.26 34.0577 122.554 33.9992 122.851 34.0014H196.032C196.649 34.0085 197.239 34.2485 197.686 34.6732C198.132 35.0978 198.401 35.6758 198.439 36.2908C198.456 36.5874 198.412 36.8843 198.31 37.1631C198.207 37.442 198.049 37.6969 197.844 37.9121C197.639 38.1273 197.393 38.2982 197.119 38.4142C196.846 38.5303 196.551 38.589 196.254 38.5867Z" fill="#EA3F7E"/>
<path opacity="0.2" d="M196.254 38.5867H123.072C122.455 38.5795 121.864 38.3386 121.417 37.9125C120.97 37.4865 120.702 36.907 120.666 36.2908C120.65 35.9947 120.694 35.6985 120.797 35.4204C120.9 35.1423 121.059 34.8882 121.263 34.6737C121.468 34.4593 121.714 34.289 121.987 34.1733C122.26 34.0577 122.554 33.9992 122.851 34.0014H196.032C196.649 34.0085 197.239 34.2485 197.686 34.6732C198.132 35.0978 198.401 35.6758 198.439 36.2908C198.456 36.5874 198.412 36.8843 198.31 37.1631C198.207 37.442 198.049 37.6969 197.844 37.9121C197.639 38.1273 197.393 38.2982 197.119 38.4142C196.846 38.5303 196.551 38.589 196.254 38.5867Z" fill="black"/>
<path d="M175.745 231.697H170.964L170.488 220.628H175.269L175.745 231.697Z" fill="#FFC3BD"/>
<path d="M204.437 231.697H199.656L197.256 220.628H202.03L204.437 231.697Z" fill="#FFC3BD"/>
<path d="M199.317 231.142H204.685C204.779 231.142 204.871 231.174 204.945 231.233C205.019 231.293 205.07 231.376 205.089 231.468L206.035 235.721C206.056 235.824 206.054 235.931 206.029 236.033C206.004 236.136 205.956 236.231 205.889 236.312C205.822 236.394 205.738 236.459 205.642 236.503C205.547 236.548 205.442 236.57 205.337 236.569C203.465 236.536 202.552 236.426 200.191 236.426C198.736 236.426 195.742 236.576 193.74 236.576C191.738 236.576 191.47 234.619 192.292 234.417C195.977 233.608 197.36 232.499 198.541 231.436C198.755 231.247 199.031 231.142 199.317 231.142Z" fill="#263238"/>
<path d="M170.997 231.142H176.215C176.309 231.142 176.401 231.174 176.475 231.233C176.548 231.293 176.599 231.376 176.619 231.468L177.565 235.721C177.588 235.821 177.589 235.924 177.567 236.024C177.545 236.124 177.502 236.218 177.439 236.299C177.377 236.381 177.297 236.447 177.206 236.493C177.115 236.54 177.015 236.566 176.912 236.569C175.027 236.536 172.308 236.426 169.94 236.426C167.174 236.426 164.787 236.576 161.539 236.576C159.582 236.576 159.034 234.619 159.856 234.417C163.594 233.595 166.646 233.51 169.875 231.514C170.209 231.292 170.596 231.164 170.997 231.142Z" fill="#263238"/>
<path d="M180.363 57.3453C179.71 60.8414 179.332 65.1723 181.778 67.5073C181.778 67.5073 180.376 71.0555 173.879 71.0555C167.944 71.0555 170.918 67.5073 170.918 67.5073C174.832 66.5746 174.61 61.7545 173.932 59.0281L180.363 57.3453Z" fill="#FFC3BD"/>
<path d="M169.053 67.9966C169.183 67.1291 170.71 66.1181 172.445 65.7398C174.18 65.3615 180.846 64.5201 182.881 65.3615C184.916 66.2029 182.528 68.6945 182.528 68.6945L169.053 67.9966Z" fill="#EA3F7E"/>
<path opacity="0.4" d="M169.053 67.9966C169.183 67.1291 170.71 66.1181 172.445 65.7398C174.18 65.3615 180.846 64.5201 182.881 65.3615C184.916 66.2029 182.528 68.6945 182.528 68.6945L169.053 67.9966Z" fill="white"/>
<path opacity="0.2" d="M170.488 220.635L170.736 226.335H175.517L175.269 220.635H170.488Z" fill="black"/>
<path opacity="0.2" d="M202.037 220.635H197.256L198.495 226.335H203.276L202.037 220.635Z" fill="black"/>
<path d="M191.679 71.8123L185.92 75.6605C185.92 75.6605 194.19 90.3686 193.499 92.7232C192.553 95.9322 191.235 102.944 189.442 106.505C189.677 107.275 190.87 109.029 191.535 109.329C196.101 105.859 200.712 94.98 200.543 91.934C200.145 85.0267 191.679 71.8123 191.679 71.8123Z" fill="#FFC3BD"/>
<path d="M189.442 106.518L184.876 106.166L187.27 111.195C187.27 111.195 191.255 111.371 191.921 108.325L189.442 106.518Z" fill="#B55B52"/>
<path d="M212.009 131.042L211.625 131.766L209.042 136.652L117.349 88.1703L120.31 82.561L212.009 131.042Z" fill="#EA3F7E"/>
<path d="M217.938 119.843L216.047 123.418L214.977 125.44L123.278 76.9584L126.239 71.3491L217.938 119.843Z" fill="#EA3F7E"/>
<path d="M123.308 76.9421L120.341 82.5444L212.002 131.097L214.97 125.495L123.308 76.9421Z" fill="#EA3F7E"/>
<path opacity="0.2" d="M123.308 76.9421L120.341 82.5444L212.002 131.097L214.97 125.495L123.308 76.9421Z" fill="black"/>
<path d="M113.397 72.0925L110.729 77.1409L117.35 88.1703L126.24 71.3555L113.397 72.0925Z" fill="#EA3F7E"/>
<path opacity="0.8" d="M113.397 72.0925L110.729 77.1409L117.35 88.1703L126.24 71.3555L113.397 72.0925Z" fill="white"/>
<path d="M107.892 72.4124L110.729 77.1411L113.397 72.0928L107.892 72.4124Z" fill="#EA3F7E"/>
<path d="M181.204 108.455L183.591 112.903L187.29 111.195L184.896 106.166L181.204 108.455Z" fill="#B55B52"/>
<path d="M190.31 68.5902C194.83 69.2424 200.008 84.8963 200.008 84.8963L190.512 90.2577C190.512 90.2577 186.331 82.8352 184.276 77.2911C182.111 71.4927 185.463 67.8858 190.31 68.5902Z" fill="#263238"/>
<path opacity="0.2" d="M187.681 73.958C185.626 72.0795 186.885 80.1217 187.864 85.2679C188.366 86.2723 188.842 87.1855 189.246 87.9486C191.536 83.9047 190.512 76.5474 187.681 73.958Z" fill="black"/>
<path d="M163.541 68.8381C163.541 68.8381 157.899 83.2657 163.254 110.138H188.842C189.018 106.225 186.553 87.0748 190.336 68.5902C187.51 68.0446 184.651 67.6829 181.778 67.5075C178.161 67.2986 174.535 67.2986 170.918 67.5075C168.428 67.7565 165.962 68.2014 163.541 68.8381Z" fill="#263238"/>
<path d="M167.474 75.5432L161.03 72.9929C161.03 72.9929 153.608 88.1445 151.247 88.9077C148.07 89.9513 141.548 92.8211 137.595 93.3821C137.099 94.0343 136.33 95.991 136.454 96.7085C141.9 98.4891 153.49 96.128 155.891 94.2626C161.396 90.01 167.474 75.5432 167.474 75.5432Z" fill="#FFC3BD"/>
<path opacity="0.2" d="M168.198 73.821C167.135 71.3685 165.1 70.3445 162.981 70.7032C162.159 73.7101 160.769 80.3173 161.024 90.2706L162.543 91.0011C162.543 91.0011 170.018 78.0149 168.198 73.821Z" fill="black"/>
<path d="M169.216 72.1058C170.821 76.3845 162.694 88.9728 162.694 88.9728L153.132 83.7549C154.568 79.8395 156.42 76.0894 158.656 72.5689C162.015 67.5531 167.448 67.4162 169.216 72.1058Z" fill="#263238"/>
<path d="M137.83 93.3689L132.143 94.5756L135.026 99.8392C136.615 99.0483 138.06 97.9942 139.298 96.7214L137.83 93.3689Z" fill="#FFC3BD"/>
<path d="M129.455 95.7691L131.725 98.9129L135.025 99.8652L132.142 94.6016L129.455 95.7691Z" fill="#FFC3BD"/>
<path d="M169.523 52.3168C169.523 52.7016 169.281 52.969 169.027 52.969C168.772 52.969 168.59 52.6298 168.616 52.245C168.642 51.8602 168.857 51.5928 169.112 51.5928C169.366 51.5928 169.549 51.9319 169.523 52.3168Z" fill="#263238"/>
<path d="M169.862 52.3492C169.335 53.4984 168.652 54.5695 167.833 55.5322C168.085 55.7359 168.379 55.8818 168.693 55.9596C169.007 56.0374 169.335 56.0451 169.653 55.9822L169.862 52.3492Z" fill="#ED847E"/>
<path d="M169.033 50.986C168.998 50.9787 168.965 50.9654 168.935 50.9468C168.91 50.931 168.888 50.9102 168.871 50.8856C168.854 50.8611 168.842 50.8334 168.836 50.8042C168.83 50.775 168.83 50.7448 168.836 50.7155C168.841 50.6862 168.853 50.6584 168.87 50.6338C169.059 50.3283 169.318 50.0721 169.625 49.8862C169.932 49.7002 170.279 49.5898 170.638 49.5641C170.697 49.5672 170.753 49.5923 170.796 49.6344C170.838 49.6766 170.863 49.7328 170.866 49.7924C170.866 49.8529 170.842 49.911 170.799 49.9538C170.756 49.9966 170.698 50.0207 170.638 50.0207C170.359 50.0466 170.091 50.1374 169.854 50.2858C169.618 50.4342 169.419 50.636 169.274 50.8751C169.251 50.9164 169.215 50.9494 169.172 50.9692C169.128 50.9891 169.08 50.995 169.033 50.986Z" fill="#263238"/>
<path d="M182.489 51.984C181.928 56.6932 181.837 59.4717 179.313 61.7676C175.51 65.2115 169.803 62.7134 168.942 57.9259C168.172 53.6211 169.222 46.6486 173.958 45.0311C175 44.6706 176.116 44.5823 177.202 44.7746C178.288 44.967 179.306 45.4336 180.161 46.1301C181.016 46.8267 181.678 47.7301 182.086 48.7546C182.493 49.7791 182.632 50.8907 182.489 51.984Z" fill="#FFC3BD"/>
<path d="M172.999 52.9037C171.349 53.2298 168.714 49.5642 170.866 46.453C169.777 45.9116 166.222 48.051 164.885 46.0551C163.548 44.0592 167.259 42.9961 166.548 41.3068C169.066 41.822 164.918 44.9659 167.311 44.6593C169.705 44.3527 172.464 39.9305 175.138 41.7438C179.867 44.9202 186.311 39.624 183.683 46.2573C186.905 45.605 189.109 49.4142 186.037 52.0557C179.913 57.3063 183.683 57.9977 179.802 58.2651C177.858 58.4086 173.338 56.0931 172.999 52.9037Z" fill="#263238"/>
<path d="M175.445 54.1365C175.219 54.6073 174.902 55.0282 174.511 55.3743C174.12 55.7205 173.663 55.9849 173.169 56.1519C171.864 56.602 171.114 55.4345 171.421 54.1496C171.695 52.9886 172.725 51.358 174.075 51.4754C174.372 51.5043 174.656 51.6071 174.902 51.7743C175.149 51.9416 175.349 52.1679 175.485 52.4327C175.622 52.6974 175.689 52.9921 175.682 53.2897C175.675 53.5874 175.594 53.8785 175.445 54.1365Z" fill="#FFC3BD"/>
<path d="M172.321 110.138C172.321 110.138 177.747 146.664 180.722 160.361C183.983 175.362 196.265 225.252 196.265 225.252H205.018C205.018 225.252 196.923 176.556 195.058 161.717C193.042 145.62 188.816 110.158 188.816 110.158L172.321 110.138Z" fill="#EA3F7E"/>
<path opacity="0.2" d="M172.321 110.138C172.321 110.138 177.747 146.664 180.722 160.361C183.983 175.362 196.265 225.252 196.265 225.252H205.018C205.018 225.252 196.923 176.556 195.058 161.717C193.042 145.62 188.816 110.158 188.816 110.158L172.321 110.138Z" fill="white"/>
<path opacity="0.2" d="M178.765 122.909C178.36 122.335 177.995 122.139 177.656 122.257H177.584C177.507 122.29 177.435 122.334 177.369 122.387C177.3 122.444 177.236 122.507 177.18 122.576L177.076 122.707L176.939 122.922C176.825 123.112 176.727 123.31 176.645 123.516C176.593 123.639 176.541 123.77 176.495 123.9C176.449 124.031 176.378 124.233 176.325 124.416C176.273 124.598 176.175 124.911 176.104 125.179C176.104 125.251 176.071 125.316 176.052 125.387C176.032 125.459 175.98 125.688 175.947 125.838C175.915 125.988 175.888 126.098 175.862 126.229C175.804 126.483 175.751 126.751 175.699 127.025C175.647 127.299 175.588 127.618 175.536 127.925C175.536 128.029 175.504 128.133 175.484 128.244C175.419 128.636 175.36 129.034 175.301 129.444C176.749 138.537 178.471 148.96 179.867 156.232C179.932 155.997 180.004 155.749 180.063 155.482C180.348 154.269 180.565 153.041 180.715 151.803C181.948 142.431 181.38 126.646 178.765 122.909Z" fill="black"/>
<path d="M163.255 110.138C163.255 110.138 162.602 145.868 163.118 160.446C163.659 175.604 168.955 225.233 168.955 225.233H177.049C177.049 225.233 177.343 176.484 177.702 161.6C178.093 145.372 180.05 110.138 180.05 110.138H163.255Z" fill="#EA3F7E"/>
<path opacity="0.2" d="M163.255 110.138C163.255 110.138 162.602 145.868 163.118 160.446C163.659 175.604 168.955 225.233 168.955 225.233H177.049C177.049 225.233 177.343 176.484 177.702 161.6C178.093 145.372 180.05 110.138 180.05 110.138H163.255Z" fill="white"/>
<path d="M177.584 222.755C177.617 222.755 177.584 225.396 177.584 225.396H168.251L167.859 222.428L177.584 222.755Z" fill="#263238"/>
<path d="M205.017 222.95C205.056 222.95 205.454 225.396 205.454 225.396H195.834L194.986 222.592L205.017 222.95Z" fill="#263238"/>
<path d="M197.739 231.977C197.414 232.004 197.089 231.919 196.819 231.736C196.731 231.665 196.663 231.572 196.622 231.467C196.581 231.362 196.568 231.248 196.584 231.136C196.585 231.071 196.603 231.007 196.636 230.951C196.669 230.895 196.717 230.848 196.773 230.816C197.302 230.549 198.847 231.469 199.024 231.599C199.042 231.612 199.055 231.63 199.063 231.651C199.072 231.672 199.074 231.695 199.069 231.716C199.066 231.738 199.056 231.759 199.041 231.775C199.026 231.791 199.006 231.803 198.984 231.808C198.577 231.91 198.159 231.966 197.739 231.977ZM197.028 230.992C196.978 230.981 196.927 230.981 196.878 230.992C196.855 231.006 196.836 231.025 196.824 231.048C196.811 231.071 196.805 231.097 196.806 231.123C196.796 231.199 196.805 231.276 196.832 231.348C196.86 231.42 196.904 231.484 196.962 231.534C197.495 231.781 198.102 231.814 198.658 231.625C198.161 231.311 197.607 231.096 197.028 230.992Z" fill="#EA3F7E"/>
<path d="M198.958 231.814C198.941 231.82 198.923 231.82 198.906 231.814C198.41 231.547 197.458 230.51 197.556 229.968C197.572 229.885 197.617 229.811 197.683 229.757C197.748 229.704 197.83 229.675 197.914 229.675C198.001 229.662 198.088 229.668 198.172 229.693C198.255 229.718 198.332 229.76 198.397 229.818C198.952 230.268 199.049 231.651 199.049 231.71C199.049 231.73 199.044 231.75 199.035 231.768C199.026 231.786 199.013 231.802 198.997 231.814C198.984 231.816 198.971 231.816 198.958 231.814ZM197.993 229.857H197.973C197.823 229.857 197.81 229.942 197.804 229.975C197.745 230.288 198.351 231.077 198.847 231.449C198.813 230.905 198.615 230.384 198.28 229.955C198.238 229.919 198.189 229.893 198.136 229.878C198.083 229.864 198.027 229.861 197.973 229.87L197.993 229.857Z" fill="#EA3F7E"/>
<path d="M169.007 231.977C168.598 232.015 168.188 231.912 167.846 231.684C167.771 231.615 167.713 231.53 167.677 231.435C167.641 231.339 167.627 231.237 167.638 231.136C167.638 231.074 167.655 231.013 167.687 230.96C167.719 230.907 167.765 230.864 167.82 230.836C168.401 230.51 170.325 231.488 170.54 231.599C170.562 231.609 170.579 231.626 170.59 231.647C170.601 231.669 170.604 231.693 170.599 231.716C170.596 231.74 170.585 231.761 170.569 231.778C170.552 231.794 170.531 231.805 170.507 231.808C170.014 231.913 169.512 231.97 169.007 231.977ZM168.14 230.992C168.068 230.989 167.997 231.003 167.931 231.031C167.909 231.044 167.891 231.062 167.879 231.084C167.866 231.106 167.859 231.13 167.859 231.155C167.85 231.222 167.858 231.29 167.882 231.352C167.906 231.415 167.945 231.471 167.996 231.514C168.29 231.775 169.079 231.821 170.136 231.645C169.512 231.317 168.837 231.096 168.14 230.992Z" fill="#EA3F7E"/>
<path d="M170.488 231.814H170.442C169.862 231.553 168.72 230.51 168.812 229.981C168.812 229.857 168.922 229.694 169.229 229.668C169.345 229.651 169.463 229.659 169.576 229.692C169.688 229.724 169.792 229.781 169.881 229.857C170.488 230.36 170.612 231.645 170.618 231.703C170.621 231.722 170.618 231.742 170.61 231.759C170.602 231.776 170.589 231.791 170.573 231.801C170.547 231.816 170.517 231.821 170.488 231.814ZM169.32 229.857H169.275C169.072 229.857 169.059 229.955 169.053 229.988C169.001 230.307 169.777 231.123 170.357 231.475C170.301 230.927 170.073 230.411 169.705 230.001C169.594 229.918 169.459 229.872 169.32 229.87V229.857Z" fill="#EA3F7E"/>
</svg>
